<svg width="35" height="35" viewBox="0 0 35 35" fill="none" xmlns="http://www.w3.org/2000/svg">
<path d="M27.7083 27.7083H7.29167V7.29167H16.0417V4.375H7.29167C6.51883 4.37731 5.7783 4.68534 5.23182 5.23182C4.68534 5.7783 4.37731 6.51883 4.375 7.29167V27.7083C4.37731 28.4812 4.68534 29.2217 5.23182 29.7682C5.7783 30.3147 6.51883 30.6227 7.29167 30.625H27.7083C28.4812 30.6227 29.2217 30.3147 29.7682 29.7682C30.3147 29.2217 30.6227 28.4812 30.625 27.7083V21.875H27.7083V27.7083Z" fill="black"/>
<path d="M21.875 7.29166H30.625V16.0417C30.625 16.4284 30.4713 16.7994 30.1978 17.0729C29.9243 17.3464 29.5534 17.5 29.1666 17.5H23.3333C22.9465 17.5 22.5756 17.3464 22.3021 17.0729C22.0286 16.7994 21.875 16.4284 21.875 16.0417V7.29166ZM32.0833 4.375H29.1666L28.3339 2.91666H24.166L23.3333 4.375H20.4166V5.83333H32.0833V4.375Z" fill="#E70448"/>
</svg>
