<svg width="21" height="24" viewBox="0 0 21 24" fill="none" xmlns="http://www.w3.org/2000/svg">
<path d="M8.79163 0.333328C9.02369 0.333328 9.24625 0.425515 9.41034 0.58961C9.57444 0.753704 9.66663 0.976264 9.66663 1.20833V4.125C9.66663 4.35706 9.57444 4.57962 9.41034 4.74371C9.24625 4.90781 9.02369 5 8.79163 5C8.55956 5 8.337 4.90781 8.17291 4.74371C8.00881 4.57962 7.91663 4.35706 7.91663 4.125V1.20833C7.91663 0.976264 8.00881 0.753704 8.17291 0.58961C8.337 0.425515 8.55956 0.333328 8.79163 0.333328ZM3.21496 2.63166C3.37902 2.4678 3.60142 2.37577 3.83329 2.37577C4.06517 2.37577 4.28756 2.4678 4.45163 2.63166L6.49329 4.67333C6.57926 4.75343 6.64821 4.85003 6.69604 4.95737C6.74386 5.0647 6.76958 5.18057 6.77165 5.29805C6.77372 5.41554 6.75211 5.53224 6.7081 5.64119C6.66409 5.75015 6.59859 5.84912 6.5155 5.93221C6.43242 6.0153 6.33344 6.0808 6.22449 6.1248C6.11554 6.16881 5.99884 6.19042 5.88135 6.18835C5.76386 6.18628 5.648 6.16056 5.54066 6.11274C5.43333 6.06492 5.33673 5.99596 5.25663 5.91L3.21496 3.86833C3.0511 3.70427 2.95906 3.48187 2.95906 3.25C2.95906 3.01812 3.0511 2.79572 3.21496 2.63166ZM14.3683 2.63166C14.5322 2.79572 14.6242 3.01812 14.6242 3.25C14.6242 3.48187 14.5322 3.70427 14.3683 3.86833L12.3266 5.91C12.2465 5.99596 12.1499 6.06492 12.0426 6.11274C11.9353 6.16056 11.8194 6.18628 11.7019 6.18835C11.5844 6.19042 11.4677 6.16881 11.3588 6.1248C11.2498 6.0808 11.1508 6.0153 11.0677 5.93221C10.9847 5.84912 10.9192 5.75015 10.8751 5.64119C10.8311 5.53224 10.8095 5.41554 10.8116 5.29805C10.8137 5.18057 10.8394 5.0647 10.8872 4.95737C10.935 4.85003 11.004 4.75343 11.09 4.67333L13.1316 2.63166C13.2957 2.4678 13.5181 2.37577 13.75 2.37577C13.9818 2.37577 14.2042 2.4678 14.3683 2.63166ZM0.916626 8.20833C0.916626 7.97626 1.00881 7.75371 1.17291 7.58961C1.337 7.42552 1.55956 7.33333 1.79163 7.33333H4.70829C4.94036 7.33333 5.16292 7.42552 5.32701 7.58961C5.49111 7.75371 5.58329 7.97626 5.58329 8.20833C5.58329 8.44039 5.49111 8.66295 5.32701 8.82705C5.16292 8.99114 4.94036 9.08333 4.70829 9.08333H1.79163C1.55956 9.08333 1.337 8.99114 1.17291 8.82705C1.00881 8.66295 0.916626 8.44039 0.916626 8.20833ZM7.91663 9.06816C7.91663 7.75333 9.45896 7.044 10.4565 7.90033L20.3276 16.361C21.3893 17.271 20.785 19.0105 19.3885 19.0677L14.9085 19.2462C14.4266 19.2648 13.974 19.4795 13.652 19.8377L10.6023 23.2467C9.66079 24.3002 7.91663 23.6328 7.91663 22.22V9.06816Z" fill="black"/>
</svg>
