<svg width="35" height="35" viewBox="0 0 35 35" fill="none" xmlns="http://www.w3.org/2000/svg">
<path d="M5.8333 13.125C5.4201 13.125 5.07399 12.985 4.79496 12.705C4.51594 12.425 4.37594 12.0789 4.37496 11.6667V7.29167C4.37496 6.48958 4.6608 5.80319 5.23246 5.2325C5.80413 4.66181 6.49052 4.37597 7.29163 4.375H11.6666C12.0798 4.375 12.4264 4.515 12.7064 4.795C12.9864 5.075 13.1259 5.42111 13.125 5.83333C13.124 6.24556 12.984 6.59215 12.705 6.87312C12.4259 7.1541 12.0798 7.29361 11.6666 7.29167H7.29163V11.6667C7.29163 12.0799 7.15163 12.4265 6.87163 12.7065C6.59163 12.9865 6.24552 13.126 5.8333 13.125ZM29.1666 13.125C28.7534 13.125 28.4073 12.985 28.1283 12.705C27.8493 12.425 27.7093 12.0789 27.7083 11.6667V7.29167H23.3333C22.9201 7.29167 22.574 7.15167 22.295 6.87167C22.0159 6.59167 21.8759 6.24556 21.875 5.83333C21.874 5.42111 22.014 5.075 22.295 4.795C22.5759 4.515 22.922 4.375 23.3333 4.375H27.7083C28.5104 4.375 29.1973 4.66083 29.7689 5.2325C30.3406 5.80417 30.6259 6.49056 30.625 7.29167V11.6667C30.625 12.0799 30.485 12.4265 30.205 12.7065C29.925 12.9865 29.5789 13.126 29.1666 13.125ZM23.5156 22.0573L19.9791 18.5208C19.6875 18.2292 19.5416 17.8889 19.5416 17.5C19.5416 17.1111 19.6875 16.7708 19.9791 16.4792L23.5156 12.9427C23.8073 12.651 24.1539 12.5052 24.5554 12.5052C24.9569 12.5052 25.303 12.651 25.5937 12.9427C25.8844 13.2344 26.0302 13.581 26.0312 13.9825C26.0322 14.384 25.8864 14.7301 25.5937 15.0208L24.5364 16.0417H30.625C31.0382 16.0417 31.3843 16.1817 31.6633 16.4617C31.9423 16.7417 32.0823 17.0878 32.0833 17.5C32.0843 17.9122 31.9443 18.2588 31.6633 18.5398C31.3823 18.8208 31.0362 18.9603 30.625 18.9583H24.5364L25.5937 19.9792C25.8854 20.2708 26.0312 20.6174 26.0312 21.019C26.0312 21.4205 25.8854 21.7666 25.5937 22.0573C25.302 22.348 24.9559 22.4938 24.5554 22.4948C24.1548 22.4958 23.8082 22.3499 23.5156 22.0573ZM9.44267 22.0573C9.15101 21.7656 8.99934 21.4195 8.98767 21.019C8.97601 20.6184 9.11552 20.2718 9.40621 19.9792L10.4635 18.9583H4.37496C3.96177 18.9583 3.61566 18.8183 3.33663 18.5383C3.0576 18.2583 2.9176 17.9122 2.91663 17.5C2.91566 17.0878 3.05566 16.7417 3.33663 16.4617C3.6176 16.1817 3.96371 16.0417 4.37496 16.0417H10.4635L9.40621 15.0208C9.11455 14.7292 8.97455 14.3831 8.98621 13.9825C8.99788 13.5819 9.15003 13.2353 9.44267 12.9427C9.73531 12.6501 10.0756 12.5042 10.4635 12.5052C10.8514 12.5062 11.1917 12.652 11.4843 12.9427L15.0208 16.4792C15.3125 16.7708 15.4583 17.1111 15.4583 17.5C15.4583 17.8889 15.3125 18.2292 15.0208 18.5208L11.4843 22.0573C11.1927 22.349 10.8524 22.4948 10.4635 22.4948C10.0746 22.4948 9.73434 22.349 9.44267 22.0573ZM7.29163 30.625C6.48955 30.625 5.80316 30.3397 5.23246 29.769C4.66177 29.1983 4.37594 28.5114 4.37496 27.7083V23.3333C4.37496 22.9201 4.51496 22.574 4.79496 22.295C5.07496 22.016 5.42108 21.876 5.8333 21.875C6.24552 21.874 6.59212 22.014 6.87309 22.295C7.15406 22.576 7.29358 22.9221 7.29163 23.3333V27.7083H11.6666C12.0798 27.7083 12.4264 27.8483 12.7064 28.1283C12.9864 28.4083 13.1259 28.7544 13.125 29.1667C13.124 29.5789 12.984 29.9255 12.705 30.2065C12.4259 30.4874 12.0798 30.6269 11.6666 30.625H7.29163ZM23.3333 30.625C22.9201 30.625 22.574 30.485 22.295 30.205C22.0159 29.925 21.8759 29.5789 21.875 29.1667C21.874 28.7544 22.014 28.4083 22.295 28.1283C22.5759 27.8483 22.922 27.7083 23.3333 27.7083H27.7083V23.3333C27.7083 22.9201 27.8483 22.574 28.1283 22.295C28.4083 22.016 28.7544 21.876 29.1666 21.875C29.5789 21.874 29.9255 22.014 30.2064 22.295C30.4874 22.576 30.6269 22.9221 30.625 23.3333V27.7083C30.625 28.5104 30.3396 29.1973 29.7689 29.769C29.1982 30.3406 28.5114 30.626 27.7083 30.625H23.3333Z" fill="black"/>
</svg>
