<svg width="23" height="23" viewBox="0 0 23 23" fill="none" xmlns="http://www.w3.org/2000/svg">
<path d="M11.8354 21.4907C11.1718 21.4907 10.5087 21.4252 9.86471 21.2955C9.80463 21.2845 9.74734 21.2616 9.69618 21.2283C9.64502 21.1949 9.60103 21.1517 9.56675 21.1011C9.53248 21.0505 9.50862 20.9937 9.49656 20.9338C9.4845 20.8739 9.48449 20.8122 9.49653 20.7523C9.50856 20.6925 9.5324 20.6356 9.56665 20.585C9.60091 20.5344 9.64489 20.4912 9.69603 20.4578C9.74718 20.4244 9.80446 20.4015 9.86454 20.3905C9.92462 20.3795 9.98629 20.3806 10.046 20.3936C10.7625 20.5362 11.4934 20.593 12.2234 20.5627C12.2839 20.5596 12.3444 20.5685 12.4013 20.5891C12.4583 20.6096 12.5106 20.6414 12.5552 20.6824C12.5998 20.7234 12.6357 20.7729 12.6609 20.828C12.6861 20.883 12.7001 20.9426 12.702 21.0031C12.707 21.125 12.6635 21.2439 12.5809 21.3337C12.4983 21.4234 12.3834 21.4767 12.2615 21.4818C12.1202 21.4877 11.9781 21.4907 11.8354 21.4907ZM14.505 21.1103C14.3942 21.1104 14.2872 21.0705 14.2035 20.9979C14.1198 20.9254 14.0651 20.8251 14.0494 20.7155C14.0337 20.6059 14.0581 20.4942 14.1181 20.4011C14.1781 20.3081 14.2696 20.2397 14.3759 20.2087C15.0768 20.0036 15.75 19.7136 16.3806 19.3453C16.4328 19.3139 16.4908 19.2932 16.551 19.2844C16.6113 19.2756 16.6727 19.2789 16.7317 19.294C16.7907 19.3091 16.8462 19.3358 16.8948 19.3725C16.9434 19.4092 16.9842 19.4552 17.0149 19.5078C17.0456 19.5605 17.0655 19.6187 17.0735 19.679C17.0816 19.7394 17.0775 19.8008 17.0616 19.8596C17.0457 19.9184 17.0183 19.9735 16.981 20.0216C16.9436 20.0697 16.8971 20.11 16.8441 20.1399C16.1487 20.5456 15.4067 20.8653 14.6342 21.0919C14.5911 21.1042 14.548 21.1103 14.505 21.1103ZM7.77792 20.5825C7.71191 20.5825 7.64475 20.5682 7.58127 20.5383C6.85426 20.1936 6.17171 19.762 5.54853 19.2531C5.50175 19.2149 5.46294 19.1678 5.43433 19.1146C5.40572 19.0615 5.38787 19.0032 5.3818 18.9431C5.37572 18.883 5.38154 18.8223 5.39892 18.7644C5.4163 18.7066 5.4449 18.6527 5.4831 18.606C5.52129 18.5592 5.56833 18.5204 5.62152 18.4918C5.67471 18.4632 5.73301 18.4453 5.7931 18.4392C5.85319 18.4331 5.91388 18.439 5.97173 18.4563C6.02957 18.4737 6.08342 18.5023 6.1302 18.5405C6.69585 19.0024 7.31539 19.394 7.97526 19.7069C8.06964 19.7516 8.14597 19.8272 8.1917 19.9211C8.23742 20.015 8.24982 20.1217 8.22686 20.2236C8.20389 20.3255 8.14693 20.4166 8.06533 20.4818C7.98374 20.547 7.88238 20.5825 7.77792 20.5825ZM18.44 18.8156C18.3484 18.8157 18.2588 18.7884 18.1828 18.7373C18.1068 18.6861 18.0478 18.6134 18.0134 18.5285C17.9789 18.4435 17.9707 18.3503 17.9897 18.2606C18.0087 18.171 18.054 18.089 18.1199 18.0253C18.6441 17.5171 19.1051 16.9475 19.493 16.3288C19.5577 16.2254 19.6609 16.152 19.7798 16.1246C19.8987 16.0973 20.0237 16.1183 20.1271 16.183C20.2305 16.2478 20.304 16.351 20.3313 16.4699C20.3587 16.5888 20.3377 16.7137 20.2729 16.8171C19.8456 17.4987 19.3377 18.1262 18.7602 18.6861C18.671 18.7724 18.5555 18.8156 18.44 18.8156ZM4.24972 17.7029C4.17841 17.7029 4.10806 17.6864 4.04423 17.6546C3.9804 17.6227 3.92485 17.5765 3.88195 17.5196C3.39794 16.8766 2.99364 16.1774 2.6779 15.4371C2.65422 15.3816 2.64172 15.3219 2.64111 15.2615C2.6405 15.2011 2.6518 15.1411 2.67435 15.0851C2.6969 15.029 2.73027 14.978 2.77256 14.9348C2.81484 14.8917 2.86521 14.8573 2.92078 14.8336C2.97636 14.8099 3.03605 14.7974 3.09646 14.7968C3.15687 14.7962 3.2168 14.8075 3.27284 14.8301C3.32889 14.8526 3.37994 14.886 3.42308 14.9283C3.46623 14.9706 3.50062 15.0209 3.5243 15.0765C3.8108 15.7482 4.17764 16.3827 4.6168 16.9662C4.66821 17.0345 4.69958 17.1157 4.70739 17.2008C4.71521 17.2859 4.69916 17.3715 4.66104 17.448C4.62292 17.5245 4.56425 17.5889 4.4916 17.6339C4.41894 17.6789 4.33519 17.7028 4.24972 17.7029ZM20.8569 14.9564C20.7842 14.9564 20.7125 14.9392 20.6478 14.9061C20.5831 14.8731 20.5271 14.8252 20.4845 14.7663C20.4418 14.7074 20.4137 14.6393 20.4025 14.5675C20.3913 14.4957 20.3972 14.4222 20.4199 14.3531C20.6466 13.6592 20.7881 12.9404 20.8415 12.2123C20.8456 12.1519 20.8617 12.093 20.8887 12.0389C20.9158 11.9847 20.9533 11.9365 20.9991 11.897C21.0449 11.8575 21.0981 11.8274 21.1556 11.8086C21.2131 11.7897 21.2738 11.7825 21.3341 11.7873C21.3944 11.7917 21.4532 11.8079 21.5072 11.835C21.5612 11.8622 21.6093 11.8997 21.6488 11.9454C21.6883 11.9911 21.7184 12.0442 21.7373 12.1015C21.7563 12.1589 21.7638 12.2194 21.7594 12.2797C21.7005 13.0821 21.5443 13.8745 21.2943 14.6393C21.264 14.7314 21.2055 14.8117 21.1269 14.8686C21.0484 14.9256 20.9539 14.9563 20.8569 14.9564ZM2.46446 13.5123C2.35521 13.5121 2.24957 13.4731 2.16647 13.4022C2.08337 13.3312 2.02822 13.2331 2.0109 13.1252C1.88314 12.3309 1.85163 11.5242 1.91706 10.7224C1.93119 10.6041 1.99059 10.4959 2.0828 10.4205C2.17501 10.3451 2.29284 10.3084 2.41156 10.318C2.53028 10.3277 2.64064 10.3829 2.71947 10.4722C2.79829 10.5615 2.83945 10.6779 2.8343 10.7969C2.77504 11.5251 2.80361 12.2578 2.9194 12.9791C2.93 13.0449 2.92617 13.1123 2.90817 13.1765C2.89018 13.2406 2.85844 13.3002 2.81517 13.3509C2.7719 13.4016 2.71813 13.4423 2.65757 13.4701C2.59701 13.498 2.53112 13.5124 2.46446 13.5123ZM21.1938 10.4144C21.0851 10.4143 20.9799 10.3757 20.8969 10.3054C20.8139 10.2352 20.7585 10.1378 20.7405 10.0305C20.6195 9.31042 20.411 8.60779 20.1197 7.93822C20.071 7.82634 20.0688 7.69971 20.1135 7.58619C20.1582 7.47266 20.2461 7.38153 20.358 7.33286C20.4699 7.28418 20.5965 7.28194 20.71 7.32662C20.8236 7.37131 20.9147 7.45926 20.9634 7.57114C21.2846 8.30937 21.5146 9.08407 21.6481 9.87804C21.6592 9.94403 21.6558 10.0117 21.638 10.0762C21.6203 10.1407 21.5887 10.2006 21.5455 10.2517C21.5022 10.3028 21.4484 10.3438 21.3876 10.3719C21.3269 10.4 21.2607 10.4145 21.1938 10.4144ZM2.83683 8.97345C2.76385 8.97345 2.69191 8.95609 2.62696 8.9228C2.56201 8.88951 2.50592 8.84124 2.46331 8.78198C2.42071 8.72272 2.39281 8.65418 2.38194 8.58201C2.37106 8.50984 2.37751 8.43612 2.40075 8.36694C2.65716 7.60405 3.00574 6.87531 3.43874 6.19689C3.50435 6.09401 3.60813 6.02141 3.72727 5.99506C3.78626 5.98201 3.84724 5.9807 3.90673 5.99122C3.96622 6.00174 4.02306 6.02387 4.074 6.05636C4.12494 6.08884 4.16898 6.13104 4.20361 6.18055C4.23824 6.23005 4.26278 6.28589 4.27583 6.34488C4.28888 6.40387 4.29019 6.46485 4.27967 6.52435C4.26915 6.58384 4.24702 6.64068 4.21453 6.69162C3.82171 7.30704 3.5055 7.96812 3.27291 8.66019C3.24218 8.75149 3.18356 8.83084 3.10532 8.88704C3.02708 8.94325 2.93317 8.97347 2.83683 8.97345ZM19.3777 6.2376C19.2395 6.2376 19.1029 6.1755 19.012 6.05705C18.5681 5.47687 18.0558 4.95237 17.4862 4.49489C17.3911 4.41849 17.3302 4.30742 17.317 4.18613C17.3037 4.06484 17.3392 3.94326 17.4156 3.84813C17.492 3.753 17.6031 3.69212 17.7244 3.67887C17.8457 3.66563 17.9672 3.70112 18.0624 3.77752C18.6895 4.28143 19.2537 4.85897 19.7428 5.49769C19.795 5.56581 19.8271 5.64719 19.8355 5.73262C19.8439 5.81805 19.8282 5.90412 19.7903 5.98111C19.7523 6.05809 19.6935 6.12291 19.6206 6.16824C19.5477 6.21357 19.4636 6.23759 19.3777 6.2376ZM5.2838 5.13245C5.1919 5.13246 5.10209 5.10495 5.02597 5.05345C4.94985 5.00195 4.8909 4.92884 4.85672 4.84352C4.82254 4.75821 4.8147 4.66461 4.83421 4.5748C4.85371 4.48499 4.89968 4.40308 4.96617 4.33964C5.54815 3.78411 6.19516 3.30097 6.89311 2.90076C6.94553 2.87072 7.00335 2.8513 7.06328 2.84361C7.1232 2.83592 7.18405 2.8401 7.24236 2.85593C7.30067 2.87176 7.35528 2.89891 7.40309 2.93585C7.45091 2.97278 7.49097 3.01877 7.52101 3.07119C7.55105 3.12361 7.57047 3.18143 7.57816 3.24135C7.58585 3.30128 7.58167 3.36213 7.56584 3.42043C7.55001 3.47874 7.52286 3.53336 7.48592 3.58117C7.44899 3.62898 7.403 3.66905 7.35058 3.69909C6.71695 4.06239 6.12956 4.50096 5.6012 5.00526C5.51568 5.08686 5.40201 5.13241 5.2838 5.13245ZM15.9597 3.44977C15.8926 3.44977 15.8242 3.43505 15.7598 3.40377C15.1024 3.08604 14.4087 2.84976 13.694 2.7002C13.5751 2.67469 13.4711 2.60313 13.4048 2.50118C13.3385 2.39922 13.3153 2.27516 13.3402 2.15613C13.3652 2.0371 13.4362 1.93278 13.5379 1.866C13.6395 1.79921 13.7634 1.77539 13.8826 1.79975C14.6705 1.9647 15.4353 2.22522 16.16 2.57554C16.2539 2.62085 16.3295 2.69667 16.3746 2.79058C16.4198 2.8845 16.4317 2.99095 16.4084 3.09251C16.3851 3.19407 16.3281 3.28472 16.2465 3.34963C16.165 3.41453 16.0639 3.44983 15.9597 3.44977ZM9.23612 2.86902C9.12511 2.86901 9.01784 2.82886 8.93411 2.75597C8.85038 2.68308 8.79583 2.58237 8.78053 2.47241C8.76523 2.36246 8.79021 2.25068 8.85087 2.1577C8.91152 2.06472 9.00375 1.99681 9.11054 1.9665C9.88454 1.74687 10.6823 1.62206 11.4864 1.59482C11.6084 1.59061 11.727 1.63501 11.8162 1.71826C11.9054 1.80151 11.9579 1.91678 11.9621 2.03872C11.9663 2.16066 11.9219 2.27927 11.8386 2.36847C11.7554 2.45767 11.6401 2.51015 11.5182 2.51436C10.7885 2.53925 10.0644 2.65247 9.36193 2.85154C9.32101 2.86315 9.27867 2.86904 9.23612 2.86902ZM20.1984 9.39757L14.4417 3.24461C14.2985 3.09131 14.1072 2.99161 13.8995 2.96207C13.6918 2.93253 13.4803 2.97493 13.3 3.08223L3.81249 8.71631C3.66409 8.80442 3.54347 8.9325 3.46441 9.08591C3.38534 9.23932 3.35102 9.41188 3.36537 9.58387L3.7911 14.6791C3.80636 14.8616 3.87573 15.0353 3.99033 15.1782C4.10494 15.321 4.25956 15.4264 4.43441 15.4808L15.6582 18.9745C15.8734 19.0414 16.1056 19.027 16.3109 18.9341C16.5162 18.8411 16.6803 18.6762 16.7721 18.4704L20.367 10.4004C20.4405 10.2352 20.4638 10.0519 20.4338 9.87356C20.4038 9.6952 20.3219 9.52964 20.1984 9.39757Z" fill="black"/>
</svg>
