<svg width="28" height="23" viewBox="0 0 28 23" fill="none" xmlns="http://www.w3.org/2000/svg">
<g clip-path="url(#clip0_161_6)">
<path d="M0.438641 7.16363C-0.181459 8.23751 0.191501 9.62963 1.26556 10.2496C1.87126 10.5995 2.57794 10.633 3.19048 10.4029L5.54128 13.865C5.46707 13.9549 5.40025 14.0506 5.34148 14.1512C4.72156 15.2253 5.09452 16.6172 6.16858 17.2373C7.24264 17.8574 8.63422 17.4843 9.25432 16.4102C9.85282 15.3734 9.51946 14.0474 8.52982 13.3985C8.49829 13.3705 8.46404 13.3458 8.42758 13.3247C8.39101 13.3036 8.35242 13.2862 8.31238 13.2728C7.75852 12.9938 7.13428 12.9659 6.57862 13.1499L4.20046 9.64799C4.25446 9.57635 4.3054 9.50219 4.3513 9.42281C4.76638 8.70353 4.73272 7.84565 4.34302 7.17065L6.67942 4.81859C7.67482 5.19893 8.83366 4.82561 9.40714 3.89879L13.3666 4.72859C13.4424 5.42213 13.8321 6.07355 14.4774 6.44615C15.5514 7.06625 16.943 6.69311 17.5631 5.61905C18.1618 4.58225 17.8283 3.25619 16.8388 2.60729C16.8072 2.57932 16.7728 2.55459 16.7362 2.53349C16.6997 2.51242 16.6613 2.49505 16.6214 2.48165C15.5646 1.94921 14.249 2.32325 13.6505 3.36005C13.6265 3.40181 13.6064 3.44447 13.5853 3.48695L9.73978 2.68073C9.72448 1.95461 9.36106 1.24973 8.7199 0.829434C8.68837 0.801477 8.65412 0.776753 8.61766 0.755634C8.58109 0.7346 8.54249 0.717293 8.50246 0.703974C7.44586 0.171354 6.13042 0.545574 5.53174 1.58237C5.07274 2.37725 5.15914 3.34565 5.66998 4.04711L3.43672 6.29531L3.40972 6.28523C2.35276 5.75261 1.03714 6.12683 0.438641 7.16363ZM1.52998 7.79363C1.80952 7.30943 2.41036 7.14851 2.89456 7.42823C3.37876 7.70777 3.53986 8.30843 3.26014 8.79263C2.98042 9.27683 2.37994 9.43811 1.89574 9.15839C1.41154 8.87867 1.25044 8.27783 1.52998 7.79363ZM6.62272 2.21219C6.90226 1.72799 7.5031 1.56707 7.98748 1.84679C8.47168 2.12633 8.6326 2.72699 8.35288 3.21119C8.07334 3.69539 7.47268 3.85667 6.98848 3.57695C6.50428 3.29723 6.34318 2.69639 6.62272 2.21219ZM6.43282 14.7811C6.71236 14.2969 7.3132 14.1361 7.79758 14.4157C8.28196 14.6952 8.4427 15.2959 8.16298 15.7801C7.88344 16.2643 7.28278 16.4255 6.79858 16.146C6.31438 15.8665 6.15328 15.2654 6.43282 14.7811ZM14.7416 3.98969C15.0213 3.50549 15.622 3.34475 16.1064 3.62429C16.5908 3.90383 16.7515 4.50449 16.4718 4.98869C16.1924 5.47289 15.5916 5.63417 15.1074 5.35463C14.6232 5.07509 14.4621 4.47407 14.7416 3.98969Z" fill="black"/>
<path d="M3.55871 3.73427C3.37925 3.78467 3.36359 3.83975 3.30815 4.00499L3.00359 4.91093L3.85679 5.19749L4.09709 4.48343L4.68803 4.23215L4.33577 3.40379L3.55871 3.73427ZM9.03089 5.22971L10.2783 6.52733L10.9268 5.90363L9.67943 4.60601L9.03089 5.22971ZM11.3477 6.11477L11.7582 6.91577L13.3601 6.09479L12.9495 5.29379L11.3477 6.11477ZM1.43579 13.0118L2.33147 13.0982L2.50481 11.3065L1.60877 11.2201L1.43579 13.0118ZM2.75285 14.0738L4.39427 14.812L4.76381 13.9916L3.12221 13.2529L2.75285 14.0738Z" fill="#E70448"/>
<path d="M26.9542 15.8036C27.5616 14.7225 27.1722 13.3349 26.0909 12.7276C25.4812 12.3849 24.7741 12.3597 24.1644 12.597L21.7729 9.16281C21.8461 9.07209 21.9117 8.9756 21.9693 8.87428C22.5765 7.79298 22.1872 6.40554 21.1059 5.79814C20.0246 5.19075 18.6375 5.58026 18.0301 6.66156C17.4439 7.70534 17.7929 9.02738 18.7901 9.66457C18.8219 9.69215 18.8565 9.71647 18.8932 9.73716C18.93 9.75782 18.9688 9.77473 19.009 9.78764C19.5661 10.0601 20.1906 10.0806 20.7441 9.89013L23.1633 13.3638C23.1102 13.436 23.0601 13.5108 23.0152 13.5907C22.6086 14.3148 22.6524 15.1722 23.05 15.8426L20.7415 18.222C19.7417 17.8535 18.5873 18.2404 18.0248 19.1739L14.0558 18.3909C13.9719 17.6983 13.5745 17.0515 12.9249 16.6865C11.8436 16.0791 10.4565 16.4686 9.84911 17.5499C9.26269 18.5937 9.61184 19.9158 10.6089 20.5529C10.6408 20.5806 10.6755 20.6049 10.7123 20.6255C10.749 20.6462 10.7877 20.6631 10.8278 20.676C11.8908 21.196 13.2019 20.8064 13.7881 19.7627C13.8116 19.7206 13.8312 19.6777 13.8518 19.635L17.7065 20.3958C17.7304 21.1217 18.1021 21.8223 18.7482 22.235C18.78 22.2626 18.8146 22.2869 18.8513 22.3076C18.8881 22.3282 18.9269 22.345 18.9671 22.3579C20.0299 22.878 21.3408 22.4883 21.9272 21.4445C22.3768 20.6443 22.279 19.677 21.76 18.9816L23.9666 16.7072L23.9937 16.717C25.0568 17.2371 26.368 16.8474 26.9542 15.8036ZM25.8555 15.1865C25.5817 15.674 24.9828 15.842 24.4953 15.568C24.0079 15.2942 23.8397 14.6954 24.1137 14.208C24.3877 13.7205 24.9862 13.5522 25.4737 13.8261C25.9611 14.1001 26.1293 14.699 25.8555 15.1865ZM20.8289 20.8276C20.5551 21.3151 19.9562 21.483 19.4686 21.2091C18.9811 20.9352 18.8131 20.3365 19.0871 19.8491C19.3609 19.3616 19.9596 19.1932 20.4471 19.4672C20.9346 19.7412 21.1027 20.3401 20.8289 20.8276ZM20.8706 8.25737C20.5968 8.74483 19.9979 8.91264 19.5103 8.63883C19.0226 8.36502 18.8548 7.76629 19.1288 7.27883C19.4026 6.79137 20.0013 6.62302 20.4888 6.89683C20.9763 7.17065 21.1444 7.76972 20.8706 8.25737ZM12.6896 19.1459C12.4156 19.6334 11.8169 19.8012 11.3293 19.5274C10.8416 19.2536 10.6738 18.6549 10.9478 18.1674C11.2214 17.6799 11.8203 17.5116 12.3078 17.7854C12.7953 18.0592 12.9634 18.6583 12.6896 19.1459Z" fill="black"/>
<path d="M23.8747 19.2695C24.0535 19.217 24.0685 19.1617 24.122 18.9958L24.4159 18.0864L23.5594 17.8099L23.3275 18.5267L22.7396 18.785L23.1016 19.6091L23.8747 19.2695ZM18.3852 17.8387L17.1226 16.5558L16.4815 17.1871L17.7441 18.47L18.3852 17.8387ZM16.0582 16.981L15.6382 16.1849L14.0462 17.0247L14.4662 17.8208L16.0582 16.981ZM25.8881 9.96755L24.9914 9.89171L24.8392 11.6854L25.7362 11.7612L25.8881 9.96755ZM24.5586 8.92115L22.9086 8.20237L22.5487 9.02711L24.1989 9.74643L24.5586 8.92115Z" fill="#E70448"/>
</g>
<defs>
<clipPath id="clip0_161_6">
<rect width="28" height="23" fill="white"/>
</clipPath>
</defs>
</svg>
