<svg width="21" height="21" viewBox="0 0 21 21" fill="none" xmlns="http://www.w3.org/2000/svg">
<g clip-path="url(#clip0_161_14)">
<path d="M0.511829 8.35758C-0.211621 9.61044 0.223499 11.2346 1.47657 11.9578C2.18322 12.3661 3.00768 12.4051 3.72231 12.1367L6.46491 16.1759C6.37833 16.2807 6.30037 16.3924 6.23181 16.5098C5.50857 17.7628 5.94369 19.3868 7.19676 20.1102C8.44983 20.8337 10.0733 20.3983 10.7968 19.1453C11.495 17.9357 11.1061 16.3886 9.95154 15.6316C9.91476 15.5989 9.8748 15.5701 9.83226 15.5455C9.7896 15.5208 9.74457 15.5006 9.69786 15.485C9.05169 15.1595 8.32341 15.1269 7.67514 15.3415L4.90062 11.256C4.96362 11.1724 5.02305 11.0859 5.0766 10.9933C5.56086 10.1541 5.52159 9.15327 5.06694 8.36577L7.79274 5.6217C8.95404 6.06543 10.306 5.62989 10.9751 4.5486L15.5944 5.5167C15.6829 6.32583 16.1375 7.08582 16.8904 7.52052C18.1434 8.24397 19.7669 7.80864 20.4904 6.55557C21.1888 5.34597 20.7997 3.7989 19.6453 3.04185C19.6084 3.00921 19.5683 2.98036 19.5256 2.95575C19.4831 2.93116 19.4382 2.9109 19.3917 2.89527C18.1588 2.27409 16.6239 2.71047 15.9256 3.92007C15.8977 3.96879 15.8742 4.01856 15.8496 4.06812L11.3632 3.12753C11.3453 2.28039 10.9213 1.45803 10.1733 0.967678C10.1365 0.935061 10.0966 0.906217 10.054 0.881578C10.0113 0.857038 9.96632 0.836847 9.91962 0.821308C8.68692 0.199918 7.15224 0.636508 6.45378 1.84611C5.91828 2.77347 6.01908 3.90327 6.61506 4.72164L4.00959 7.34454L3.97809 7.33278C2.74497 6.71139 1.21008 7.14798 0.511829 8.35758ZM1.78506 9.09258C2.11119 8.52768 2.81217 8.33994 3.37707 8.66628C3.94197 8.99241 4.12992 9.69318 3.80358 10.2581C3.47724 10.823 2.77668 11.0111 2.21178 10.6848C1.64688 10.3585 1.45893 9.65748 1.78506 9.09258ZM7.72659 2.5809C8.05272 2.016 8.7537 1.82826 9.31881 2.1546C9.88371 2.48073 10.0714 3.1815 9.74511 3.7464C9.41898 4.3113 8.71821 4.49946 8.15331 4.17312C7.58841 3.84678 7.40046 3.1458 7.72659 2.5809ZM7.50504 17.2446C7.83117 16.6797 8.53215 16.4921 9.09726 16.8183C9.66237 17.1444 9.8499 17.8452 9.52356 18.4101C9.19743 18.975 8.49666 19.1631 7.93176 18.837C7.36686 18.5109 7.17891 17.8097 7.50504 17.2446ZM17.1986 4.65465C17.525 4.08975 18.2257 3.90222 18.7909 4.22835C19.356 4.55448 19.5435 5.25525 19.2172 5.82015C18.8912 6.38505 18.1903 6.57321 17.6254 6.24708C17.0605 5.92095 16.8725 5.21976 17.1986 4.65465Z" fill="black"/>
<path d="M4.15191 4.35666C3.94254 4.41546 3.92427 4.47972 3.85959 4.6725L3.50427 5.72943L4.49967 6.06375L4.78002 5.23068L5.46945 4.93752L5.05848 3.9711L4.15191 4.35666ZM10.5361 6.10134L11.9914 7.61523L12.7481 6.88758L11.2928 5.37369L10.5361 6.10134ZM13.239 7.13391L13.718 8.06841L15.5868 7.1106L15.1078 6.1761L13.239 7.13391ZM1.67517 15.1805L2.72013 15.2813L2.92236 13.1909L1.87698 13.0901L1.67517 15.1805ZM3.21174 16.4195L5.12673 17.2807L5.55786 16.3235L3.64266 15.4617L3.21174 16.4195Z" fill="black"/>
</g>
<defs>
<clipPath id="clip0_161_14">
<rect width="21" height="21" fill="white"/>
</clipPath>
</defs>
</svg>
